<svg width="100%" height="100%" xmlns="http://www.w3.org/2000/svg" preserveAspectRatio="xMidYMid slice">
  <defs>
    <pattern id="dots" width="28" height="28" patternUnits="userSpaceOnUse">
      <circle cx="1" cy="1" r="0.7" fill="#DDDBD6" opacity="0.06"/>
    </pattern>
  </defs>
  <rect width="100%" height="100%" fill="url(#dots)"/>
  <rect x="3%" y="4%" width="12%" height="18%" fill="none" stroke="#9B8EC4" stroke-width="0.6" opacity="0.12" transform="rotate(-8, 9%, 13%)"/>
  <rect x="82%" y="68%" width="14%" height="22%" fill="none" stroke="#C8A86C" stroke-width="0.6" opacity="0.1" transform="rotate(12, 89%, 79%)"/>
  <rect x="78%" y="18%" width="8%" height="12%" fill="none" stroke="#5BC8C0" stroke-width="0.5" opacity="0.12" transform="rotate(20, 82%, 24%)"/>
  <circle cx="88%" cy="12%" r="7%" fill="none" stroke="#9B8EC4" stroke-width="0.6" opacity="0.12"/>
  <circle cx="88%" cy="12%" r="4.5%" fill="none" stroke="#9B8EC4" stroke-width="0.4" opacity="0.09"/>
  <circle cx="88%" cy="12%" r="2%" fill="none" stroke="#9B8EC4" stroke-width="0.4" opacity="0.1"/>
  <circle cx="8%" cy="82%" r="9%" fill="none" stroke="#5BC8C0" stroke-width="0.6" opacity="0.1"/>
  <circle cx="8%" cy="82%" r="5.5%" fill="none" stroke="#5BC8C0" stroke-width="0.4" opacity="0.08"/>
  <circle cx="8%" cy="82%" r="2.5%" fill="none" stroke="#5BC8C0" stroke-width="0.3" opacity="0.1"/>
  <circle cx="18%" cy="50%" r="5%" fill="none" stroke="#C8A86C" stroke-width="0.5" opacity="0.1"/>
  <circle cx="18%" cy="50%" r="2.8%" fill="none" stroke="#C8A86C" stroke-width="0.3" opacity="0.08"/>
  <polygon points="72%,2% 85%,2% 78.5%,14%" fill="none" stroke="#C8A86C" stroke-width="0.6" opacity="0.13"/>
  <polygon points="42%,88% 52%,88% 47%,98%" fill="none" stroke="#9B8EC4" stroke-width="0.5" opacity="0.1"/>
  <line x1="6%" y1="22%" x2="20%" y2="14%" stroke="#9B8EC4" stroke-width="0.5" opacity="0.2"/>
  <line x1="20%" y1="14%" x2="34%" y2="26%" stroke="#9B8EC4" stroke-width="0.5" opacity="0.16"/>
  <line x1="34%" y1="26%" x2="48%" y2="16%" stroke="#9B8EC4" stroke-width="0.4" opacity="0.13"/>
  <line x1="48%" y1="16%" x2="60%" y2="28%" stroke="#9B8EC4" stroke-width="0.4" opacity="0.11"/>
  <circle cx="6%" cy="22%" r="2.5" fill="#9B8EC4" opacity="0.35"/>
  <circle cx="20%" cy="14%" r="2" fill="#9B8EC4" opacity="0.28"/>
  <circle cx="34%" cy="26%" r="3" fill="#9B8EC4" opacity="0.22"/>
  <circle cx="48%" cy="16%" r="2" fill="#9B8EC4" opacity="0.2"/>
  <circle cx="60%" cy="28%" r="1.5" fill="#9B8EC4" opacity="0.18"/>
  <polyline points="0,72% 8%,66% 18%,70% 30%,56% 44%,62% 58%,48% 72%,54% 85%,40% 100%,46%" fill="none" stroke="#5BC8C0" stroke-width="0.7" opacity="0.18"/>
  <circle cx="30%" cy="56%" r="2.5" fill="#5BC8C0" opacity="0.3"/>
  <circle cx="58%" cy="48%" r="2" fill="#5BC8C0" opacity="0.25"/>
  <circle cx="85%" cy="40%" r="2.5" fill="#5BC8C0" opacity="0.22"/>
  <line x1="65%" y1="78%" x2="76%" y2="70%" stroke="#C8A86C" stroke-width="0.5" opacity="0.18"/>
  <line x1="76%" y1="70%" x2="88%" y2="80%" stroke="#C8A86C" stroke-width="0.5" opacity="0.15"/>
  <line x1="88%" y1="80%" x2="96%" y2="72%" stroke="#C8A86C" stroke-width="0.4" opacity="0.13"/>
  <circle cx="65%" cy="78%" r="2.5" fill="#C8A86C" opacity="0.3"/>
  <circle cx="76%" cy="70%" r="2" fill="#C8A86C" opacity="0.25"/>
  <circle cx="88%" cy="80%" r="3" fill="#C8A86C" opacity="0.2"/>
  <circle cx="96%" cy="72%" r="1.5" fill="#C8A86C" opacity="0.18"/>
  <circle cx="55%" cy="72%" r="1.5" fill="#9B8EC4" opacity="0.2"/>
  <circle cx="70%" cy="44%" r="2" fill="#C8A86C" opacity="0.18"/>
  <circle cx="25%" cy="38%" r="1.5" fill="#5BC8C0" opacity="0.18"/>
  <circle cx="40%" cy="82%" r="2" fill="#5BC8C0" opacity="0.15"/>
  <circle cx="92%" cy="52%" r="1.5" fill="#9B8EC4" opacity="0.2"/>
  <line x1="0" y1="100%" x2="12%" y2="0" stroke="#9B8EC4" stroke-width="0.3" opacity="0.06"/>
  <line x1="92%" y1="0" x2="100%" y2="100%" stroke="#5BC8C0" stroke-width="0.3" opacity="0.06"/>
  <line x1="50%" y1="0" x2="55%" y2="100%" stroke="#C8A86C" stroke-width="0.2" opacity="0.05"/>
</svg>
