<svg viewBox="0 0 500 420" xmlns="http://www.w3.org/2000/svg">
  <defs>
    <pattern id="hgrid" width="40" height="40" patternUnits="userSpaceOnUse">
      <path d="M 40 0 L 0 0 0 40" fill="none" stroke="#DDDBD6" stroke-width="0.3" opacity="0.12"/>
    </pattern>
  </defs>
  <rect width="500" height="420" fill="url(#hgrid)"/>
  <polygon points="180,120 300,80 380,140 380,260 300,300 180,240" fill="none" stroke="#C8A86C" stroke-width="1.2" opacity="0.55"/>
  <polygon points="180,120 180,240 100,200 100,80" fill="none" stroke="#C8A86C" stroke-width="0.8" opacity="0.35"/>
  <line x1="100" y1="80" x2="180" y2="120" stroke="#C8A86C" stroke-width="0.8" opacity="0.35"/>
  <line x1="300" y1="80" x2="100" y2="80" stroke="#C8A86C" stroke-width="0.8" opacity="0.3"/>
  <line x1="380" y1="140" x2="100" y2="200" stroke="#C8A86C" stroke-width="0.5" opacity="0.2"/>
  <circle cx="180" cy="120" r="3" fill="#C8A86C" opacity="0.7"/>
  <circle cx="300" cy="80" r="3" fill="#C8A86C" opacity="0.7"/>
  <circle cx="380" cy="140" r="3" fill="#C8A86C" opacity="0.6"/>
  <circle cx="380" cy="260" r="3" fill="#C8A86C" opacity="0.5"/>
  <circle cx="300" cy="300" r="3" fill="#C8A86C" opacity="0.6"/>
  <circle cx="180" cy="240" r="3" fill="#C8A86C" opacity="0.7"/>
  <circle cx="100" cy="80" r="2.5" fill="#C8A86C" opacity="0.4"/>
  <circle cx="100" cy="200" r="2.5" fill="#C8A86C" opacity="0.4"/>
  <circle cx="250" cy="190" r="110" fill="none" stroke="#5BC8C0" stroke-width="0.8" opacity="0.18"/>
  <circle cx="250" cy="190" r="75" fill="none" stroke="#5BC8C0" stroke-width="0.6" opacity="0.14"/>
  <circle cx="250" cy="190" r="40" fill="none" stroke="#5BC8C0" stroke-width="0.5" opacity="0.18"/>
  <circle cx="250" cy="190" r="10" fill="none" stroke="#5BC8C0" stroke-width="1" opacity="0.35"/>
  <circle cx="250" cy="190" r="3" fill="#5BC8C0" opacity="0.6"/>
  <circle cx="400" cy="50" r="2.5" fill="#9B8EC4" opacity="0.6"/>
  <circle cx="440" cy="90" r="2" fill="#9B8EC4" opacity="0.5"/>
  <circle cx="470" cy="55" r="2" fill="#9B8EC4" opacity="0.4"/>
  <circle cx="420" cy="130" r="1.5" fill="#9B8EC4" opacity="0.35"/>
  <line x1="400" y1="50" x2="440" y2="90" stroke="#9B8EC4" stroke-width="0.5" opacity="0.3"/>
  <line x1="440" y1="90" x2="470" y2="55" stroke="#9B8EC4" stroke-width="0.5" opacity="0.25"/>
  <line x1="440" y1="90" x2="420" y2="130" stroke="#9B8EC4" stroke-width="0.4" opacity="0.2"/>
  <circle cx="40" cy="300" r="2.5" fill="#9B8EC4" opacity="0.5"/>
  <circle cx="80" cy="340" r="2" fill="#9B8EC4" opacity="0.4"/>
  <circle cx="30" cy="370" r="2" fill="#9B8EC4" opacity="0.35"/>
  <line x1="40" y1="300" x2="80" y2="340" stroke="#9B8EC4" stroke-width="0.5" opacity="0.25"/>
  <line x1="80" y1="340" x2="30" y2="370" stroke="#9B8EC4" stroke-width="0.4" opacity="0.2"/>
  <polyline points="0,380 60,355 130,368 200,330 280,345 360,310 440,322 500,295" fill="none" stroke="#5BC8C0" stroke-width="0.8" opacity="0.25"/>
  <circle cx="200" cy="330" r="2.5" fill="#5BC8C0" opacity="0.45"/>
  <circle cx="360" cy="310" r="2" fill="#5BC8C0" opacity="0.35"/>
  <rect x="420" y="310" width="55" height="55" fill="none" stroke="#9B8EC4" stroke-width="0.8" opacity="0.3" transform="rotate(18,447,337)"/>
  <rect x="432" y="322" width="30" height="30" fill="none" stroke="#9B8EC4" stroke-width="0.5" opacity="0.2" transform="rotate(18,447,337)"/>
</svg>
